<svg id="my-svg" width="100%" xmlns="http://www.w3.org/2000/svg" xmlns:xlink="http://www.w3.org/1999/xlink" class="statediagram" style="max-width: 493.107px; background-color: white;" viewBox="0 0 493.1070556640625 2244" role="graphics-document document" aria-roledescription="stateDiagram"><style>#my-svg{font-family:"trebuchet ms",verdana,arial,sans-serif;font-size:16px;fill:#333;}@keyframes edge-animation-frame{from{stroke-dashoffset:0;}}@keyframes dash{to{stroke-dashoffset:0;}}#my-svg .edge-animation-slow{stroke-dasharray:9,5!important;stroke-dashoffset:900;animation:dash 50s linear infinite;stroke-linecap:round;}#my-svg .edge-animation-fast{stroke-dasharray:9,5!important;stroke-dashoffset:900;animation:dash 20s linear infinite;stroke-linecap:round;}#my-svg .error-icon{fill:#552222;}#my-svg .error-text{fill:#552222;stroke:#552222;}#my-svg .edge-thickness-normal{stroke-width:1px;}#my-svg .edge-thickness-thick{stroke-width:3.5px;}#my-svg .edge-pattern-solid{stroke-dasharray:0;}#my-svg .edge-thickness-invisible{stroke-width:0;fill:none;}#my-svg .edge-pattern-dashed{stroke-dasharray:3;}#my-svg .edge-pattern-dotted{stroke-dasharray:2;}#my-svg .marker{fill:#333333;stroke:#333333;}#my-svg .marker.cross{stroke:#333333;}#my-svg svg{font-family:"trebuchet ms",verdana,arial,sans-serif;font-size:16px;}#my-svg p{margin:0;}#my-svg defs [id$="-barbEnd"]{fill:#333333;stroke:#333333;}#my-svg g.stateGroup text{fill:#9370DB;stroke:none;font-size:10px;}#my-svg g.stateGroup text{fill:#333;stroke:none;font-size:10px;}#my-svg g.stateGroup .state-title{font-weight:bolder;fill:#131300;}#my-svg g.stateGroup rect{fill:#ECECFF;stroke:#9370DB;}#my-svg g.stateGroup line{stroke:#333333;stroke-width:1;}#my-svg .transition{stroke:#333333;stroke-width:1;fill:none;}#my-svg .stateGroup .composit{fill:white;border-bottom:1px;}#my-svg .stateGroup .alt-composit{fill:#e0e0e0;border-bottom:1px;}#my-svg .state-note{stroke:#aaaa33;fill:#fff5ad;}#my-svg .state-note text{fill:black;stroke:none;font-size:10px;}#my-svg .stateLabel .box{stroke:none;stroke-width:0;fill:#ECECFF;opacity:0.5;}#my-svg .edgeLabel .label rect{fill:#ECECFF;opacity:0.5;}#my-svg .edgeLabel{background-color:rgba(232,232,232, 0.8);text-align:center;}#my-svg .edgeLabel p{background-color:rgba(232,232,232, 0.8);}#my-svg .edgeLabel rect{opacity:0.5;background-color:rgba(232,232,232, 0.8);fill:rgba(232,232,232, 0.8);}#my-svg .edgeLabel .label text{fill:#333;}#my-svg .label div .edgeLabel{color:#333;}#my-svg .stateLabel text{fill:#131300;font-size:10px;font-weight:bold;}#my-svg .node circle.state-start{fill:#333333;stroke:#333333;}#my-svg .node .fork-join{fill:#333333;stroke:#333333;}#my-svg .node circle.state-end{fill:#9370DB;stroke:white;stroke-width:1.5;}#my-svg .end-state-inner{fill:white;stroke-width:1.5;}#my-svg .node rect{fill:#ECECFF;stroke:#9370DB;stroke-width:1px;}#my-svg .node polygon{fill:#ECECFF;stroke:#9370DB;stroke-width:1px;}#my-svg [id$="-barbEnd"]{fill:#333333;}#my-svg .statediagram-cluster rect{fill:#ECECFF;stroke:#9370DB;stroke-width:1px;}#my-svg .cluster-label,#my-svg .nodeLabel{color:#131300;}#my-svg .statediagram-cluster rect.outer{rx:5px;ry:5px;}#my-svg .statediagram-state .divider{stroke:#9370DB;}#my-svg .statediagram-state .title-state{rx:5px;ry:5px;}#my-svg .statediagram-cluster.statediagram-cluster .inner{fill:white;}#my-svg .statediagram-cluster.statediagram-cluster-alt .inner{fill:#f0f0f0;}#my-svg .statediagram-cluster .inner{rx:0;ry:0;}#my-svg .statediagram-state rect.basic{rx:5px;ry:5px;}#my-svg .statediagram-state rect.divider{stroke-dasharray:10,10;fill:#f0f0f0;}#my-svg .note-edge{stroke-dasharray:5;}#my-svg .statediagram-note rect{fill:#fff5ad;stroke:#aaaa33;stroke-width:1px;rx:0;ry:0;}#my-svg .statediagram-note rect{fill:#fff5ad;stroke:#aaaa33;stroke-width:1px;rx:0;ry:0;}#my-svg .statediagram-note text{fill:black;}#my-svg .statediagram-note .nodeLabel{color:black;}#my-svg .statediagram .edgeLabel{color:red;}#my-svg [id$="-dependencyStart"],#my-svg [id$="-dependencyEnd"]{fill:#333333;stroke:#333333;stroke-width:1;}#my-svg .statediagramTitleText{text-anchor:middle;font-size:18px;fill:#333;}#my-svg [data-look="neo"].statediagram-cluster rect{fill:#ECECFF;stroke:#9370DB;stroke-width:1;}#my-svg [data-look="neo"].statediagram-cluster rect.outer{rx:5px;ry:5px;filter:drop-shadow(1px 2px 2px rgba(185, 185, 185, 1));}#my-svg .node .neo-node{stroke:#9370DB;}#my-svg [data-look="neo"].node rect,#my-svg [data-look="neo"].cluster rect,#my-svg [data-look="neo"].node polygon{stroke:#9370DB;filter:drop-shadow(1px 2px 2px rgba(185, 185, 185, 1));}#my-svg [data-look="neo"].node path{stroke:#9370DB;stroke-width:1px;}#my-svg [data-look="neo"].node .outer-path{filter:drop-shadow(1px 2px 2px rgba(185, 185, 185, 1));}#my-svg [data-look="neo"].node .neo-line path{stroke:#9370DB;filter:none;}#my-svg [data-look="neo"].node circle{stroke:#9370DB;filter:drop-shadow(1px 2px 2px rgba(185, 185, 185, 1));}#my-svg [data-look="neo"].node circle .state-start{fill:#000000;}#my-svg [data-look="neo"].icon-shape .icon{fill:#9370DB;filter:drop-shadow(1px 2px 2px rgba(185, 185, 185, 1));}#my-svg [data-look="neo"].icon-shape .icon-neo path{stroke:#9370DB;filter:drop-shadow(1px 2px 2px rgba(185, 185, 185, 1));}#my-svg :root{--mermaid-font-family:"trebuchet ms",verdana,arial,sans-serif;}</style><g><defs><marker id="my-svg_stateDiagram-barbEnd" refX="19" refY="7" markerWidth="20" markerHeight="14" markerUnits="userSpaceOnUse" orient="auto"><path d="M 19,7 L9,13 L14,7 L9,1 Z"/></marker></defs><g class="root"><g class="clusters"/><g class="edgePaths"><path d="M221.28,22L221.28,26.167C221.28,30.333,221.28,38.667,221.28,47C221.28,55.333,221.28,63.667,221.28,67.833L221.28,72" id="my-svg-edge0" class="edge-thickness-normal edge-pattern-solid transition" style="fill:none;;;fill:none" data-edge="true" data-et="edge" data-id="edge0" data-points="W3sieCI6MjIxLjI4MDA4NDEzMzE0ODIsInkiOjIyfSx7IngiOjIyMS4yODAwODQxMzMxNDgyLCJ5Ijo0N30seyJ4IjoyMjEuMjgwMDg0MTMzMTQ4MiwieSI6NzJ9XQ==" data-look="classic" marker-end="url(#my-svg_stateDiagram-barbEnd)"/><path d="M221.28,112L221.28,118.167C221.28,124.333,221.28,136.667,221.28,149C221.28,161.333,221.28,173.667,221.28,179.833L221.28,186" id="my-svg-edge1" class="edge-thickness-normal edge-pattern-solid transition" style="fill:none;;;fill:none" data-edge="true" data-et="edge" data-id="edge1" data-points="W3sieCI6MjIxLjI4MDA4NDEzMzE0ODIsInkiOjExMn0seyJ4IjoyMjEuMjgwMDg0MTMzMTQ4MiwieSI6MTQ5fSx7IngiOjIyMS4yODAwODQxMzMxNDgyLCJ5IjoxODZ9XQ==" data-look="classic" marker-end="url(#my-svg_stateDiagram-barbEnd)"/><path d="M221.28,226L221.28,232.167C221.28,238.333,221.28,250.667,221.28,263C221.28,275.333,221.28,287.667,221.28,293.833L221.28,300" id="my-svg-edge2" class="edge-thickness-normal edge-pattern-solid transition" style="fill:none;;;fill:none" data-edge="true" data-et="edge" data-id="edge2" data-points="W3sieCI6MjIxLjI4MDA4NDEzMzE0ODIsInkiOjIyNn0seyJ4IjoyMjEuMjgwMDg0MTMzMTQ4MiwieSI6MjYzfSx7IngiOjIyMS4yODAwODQxMzMxNDgyLCJ5IjozMDB9XQ==" data-look="classic" marker-end="url(#my-svg_stateDiagram-barbEnd)"/><path d="M221.28,340L221.28,346.167C221.28,352.333,221.28,364.667,221.28,377C221.28,389.333,221.28,401.667,221.28,407.833L221.28,414" id="my-svg-edge3" class="edge-thickness-normal edge-pattern-solid transition" style="fill:none;;;fill:none" data-edge="true" data-et="edge" data-id="edge3" data-points="W3sieCI6MjIxLjI4MDA4NDEzMzE0ODIsInkiOjM0MH0seyJ4IjoyMjEuMjgwMDg0MTMzMTQ4MiwieSI6Mzc3fSx7IngiOjIyMS4yODAwODQxMzMxNDgyLCJ5Ijo0MTR9XQ==" data-look="classic" marker-end="url(#my-svg_stateDiagram-barbEnd)"/><path d="M171.358,1262.32L155.131,1268.6C138.903,1274.88,106.448,1287.44,90.22,1371.47C73.992,1455.5,73.992,1611,73.992,1688.75L73.992,1766.5" id="my-svg-edge10" class="edge-thickness-normal edge-pattern-solid transition" style="fill:none;;;fill:none" data-edge="true" data-et="edge" data-id="edge10" data-points="W3sieCI6MTcxLjM1ODIwOTEzMzE0ODIsInkiOjEyNjIuMzE5NjI0NjI2NjQxNn0seyJ4Ijo3My45OTIxODc1LCJ5IjoxMzAwfSx7IngiOjczLjk5MjE4NzUsInkiOjE3NjYuNX1d" data-look="classic" marker-end="url(#my-svg_stateDiagram-barbEnd)"/><path d="M212.758,1263L210.13,1269.167C207.502,1275.333,202.247,1287.667,199.619,1373.749C196.991,1459.831,196.991,1619.662,196.991,1699.578L196.991,1779.493" id="my-svg-edge19" class="edge-thickness-normal edge-pattern-solid transition" style="fill:none;;;fill:none" data-edge="true" data-et="edge" data-id="edge19" data-points="W3sieCI6MjEyLjc1NzYwNjA2Mjk3Mjc0LCJ5IjoxMjYzfSx7IngiOjE5Ni45OTEwMjE2MzMxNDgyLCJ5IjoxMzAwfSx7IngiOjE5Ni45OTEwMjE2MzMxNDgyLCJ5IjoxNzc5LjQ5MzM1MzM2Njg1MTh9XQ==" data-look="classic" marker-end="url(#my-svg_stateDiagram-barbEnd)"/><path d="M221.28,454L221.28,460.167C221.28,466.333,221.28,478.667,221.28,491C221.28,503.333,221.28,515.667,221.28,521.833L221.28,528" id="my-svg-edge4" class="edge-thickness-normal edge-pattern-solid transition" style="fill:none;;;fill:none" data-edge="true" data-et="edge" data-id="edge4" data-points="W3sieCI6MjIxLjI4MDA4NDEzMzE0ODIsInkiOjQ1NH0seyJ4IjoyMjEuMjgwMDg0MTMzMTQ4MiwieSI6NDkxfSx7IngiOjIyMS4yODAwODQxMzMxNDgyLCJ5Ijo1Mjh9XQ==" data-look="classic" marker-end="url(#my-svg_stateDiagram-barbEnd)"/><path d="M221.28,1149L221.28,1155.167C221.28,1161.333,221.28,1173.667,221.28,1186C221.28,1198.333,221.28,1210.667,221.28,1216.833L221.28,1223" id="my-svg-edge9" class="edge-thickness-normal edge-pattern-solid transition" style="fill:none;;;fill:none" data-edge="true" data-et="edge" data-id="edge9" data-points="W3sieCI6MjIxLjI4MDA4NDEzMzE0ODIsInkiOjExNDl9LHsieCI6MjIxLjI4MDA4NDEzMzE0ODIsInkiOjExODZ9LHsieCI6MjIxLjI4MDA4NDEzMzE0ODIsInkiOjEyMjN9XQ==" data-look="classic" marker-end="url(#my-svg_stateDiagram-barbEnd)"/><path d="M251.554,1263L260.888,1269.167C270.223,1275.333,288.892,1287.667,299.012,1300C309.132,1312.333,310.704,1324.667,311.49,1330.833L312.275,1337" id="my-svg-edge17" class="edge-thickness-normal edge-pattern-solid transition" style="fill:none;;;fill:none" data-edge="true" data-et="edge" data-id="edge17" data-points="W3sieCI6MjUxLjU1NDAwMjQwMjEyMTU3LCJ5IjoxMjYzfSx7IngiOjMwNy41NjA3NTExOTk3MjIzLCJ5IjoxMzAwfSx7IngiOjMxMi4yNzU0MjYxNjE2MjAwMywieSI6MTMzN31d" data-look="classic" marker-end="url(#my-svg_stateDiagram-barbEnd)"/><path d="M391.994,1337L392.302,1330.833C392.61,1324.667,393.226,1312.333,373.094,1299.415C352.962,1286.497,312.082,1272.993,291.642,1266.242L271.202,1259.49" id="my-svg-edge18" class="edge-thickness-normal edge-pattern-solid transition" style="fill:none;;;fill:none" data-edge="true" data-et="edge" data-id="edge18" data-points="W3sieCI6MzkxLjk5NDE1MTQzNjkwMjc3LCJ5IjoxMzM3fSx7IngiOjM5My44NDE0MTgyNjYyOTY0LCJ5IjoxMzAwfSx7IngiOjI3MS4yMDE5NTkxMzMxNDgyLCJ5IjoxMjU5LjQ5MDA2MDcwMzg5MDh9XQ==" data-look="classic" marker-end="url(#my-svg_stateDiagram-barbEnd)"/></g><g class="edgeLabels"><g class="edgeLabel"><g class="label" data-id="edge0" transform="translate(0, 0)"><foreignObject width="0" height="0"><div xmlns="http://www.w3.org/1999/xhtml" class="labelBkg" style="display: table-cell; white-space: nowrap; line-height: 1.5; max-width: 200px; text-align: center;"><span class="edgeLabel"></span></div></foreignObject></g></g><g class="edgeLabel" transform="translate(221.2800841331482, 149)"><g class="label" data-id="edge1" transform="translate(-65.953125, -12)"><foreignObject width="131.90625" height="24"><div xmlns="http://www.w3.org/1999/xhtml" class="labelBkg" style="display: table-cell; white-space: nowrap; line-height: 1.5; max-width: 200px; text-align: center;"><span class="edgeLabel"><p>GET /matches/me</p></span></div></foreignObject></g></g><g class="edgeLabel" transform="translate(221.2800841331482, 263)"><g class="label" data-id="edge2" transform="translate(-72.7734375, -12)"><foreignObject width="145.546875" height="24"><div xmlns="http://www.w3.org/1999/xhtml" class="labelBkg" style="display: table-cell; white-space: nowrap; line-height: 1.5; max-width: 200px; text-align: center;"><span class="edgeLabel"><p>Show matched users</p></span></div></foreignObject></g></g><g class="edgeLabel" transform="translate(221.2800841331482, 377)"><g class="label" data-id="edge3" transform="translate(-53.2578125, -12)"><foreignObject width="106.515625" height="24"><div xmlns="http://www.w3.org/1999/xhtml" class="labelBkg" style="display: table-cell; white-space: nowrap; line-height: 1.5; max-width: 200px; text-align: center;"><span class="edgeLabel"><p>Click on match</p></span></div></foreignObject></g></g><g class="edgeLabel" transform="translate(73.9921875, 1300)"><g class="label" data-id="edge10" transform="translate(-58.75, -12)"><foreignObject width="117.5" height="24"><div xmlns="http://www.w3.org/1999/xhtml" class="labelBkg" style="display: table-cell; white-space: nowrap; line-height: 1.5; max-width: 200px; text-align: center;"><span class="edgeLabel"><p>socket.emit join</p></span></div></foreignObject></g></g><g class="edgeLabel"><g class="label" data-id="edge19" transform="translate(0, 0)"><foreignObject width="0" height="0"><div xmlns="http://www.w3.org/1999/xhtml" class="labelBkg" style="display: table-cell; white-space: nowrap; line-height: 1.5; max-width: 200px; text-align: center;"><span class="edgeLabel"></span></div></foreignObject></g></g><g class="edgeLabel" transform="translate(221.2800841331482, 491)"><g class="label" data-id="edge4" transform="translate(-72.671875, -12)"><foreignObject width="145.34375" height="24"><div xmlns="http://www.w3.org/1999/xhtml" class="labelBkg" style="display: table-cell; white-space: nowrap; line-height: 1.5; max-width: 200px; text-align: center;"><span class="edgeLabel"><p>GET /chat/:matchId</p></span></div></foreignObject></g></g><g class="edgeLabel" transform="translate(221.2800841331482, 1186)"><g class="label" data-id="edge9" transform="translate(-58.8828125, -12)"><foreignObject width="117.765625" height="24"><div xmlns="http://www.w3.org/1999/xhtml" class="labelBkg" style="display: table-cell; white-space: nowrap; line-height: 1.5; max-width: 200px; text-align: center;"><span class="edgeLabel"><p>Messages loaded</p></span></div></foreignObject></g></g><g class="edgeLabel" transform="translate(307.5607511997223, 1300)"><g class="label" data-id="edge17" transform="translate(-28.578125, -12)"><foreignObject width="57.15625" height="24"><div xmlns="http://www.w3.org/1999/xhtml" class="labelBkg" style="display: table-cell; white-space: nowrap; line-height: 1.5; max-width: 200px; text-align: center;"><span class="edgeLabel"><p>Interact</p></span></div></foreignObject></g></g><g class="edgeLabel"><g class="label" data-id="edge18" transform="translate(0, 0)"><foreignObject width="0" height="0"><div xmlns="http://www.w3.org/1999/xhtml" class="labelBkg" style="display: table-cell; white-space: nowrap; line-height: 1.5; max-width: 200px; text-align: center;"><span class="edgeLabel"></span></div></foreignObject></g></g></g><g class="nodes"><g class="node default" id="my-svg-state-root_start-0" data-look="classic" transform="translate(221.2800841331482, 15)"><circle class="state-start" r="7" width="14" height="14"/></g><g class="node  statediagram-state" id="my-svg-state-OpenChatPage-1" data-look="classic" transform="translate(221.2800841331482, 92)"><rect class="basic label-container" style="" rx="5" ry="5" x="-59.78125" y="-20" width="119.5625" height="40"/><g class="label" style="" transform="translate(-51.78125, -12)"><rect/><foreignObject width="103.5625" height="24"><div xmlns="http://www.w3.org/1999/xhtml" style="display: table-cell; white-space: nowrap; line-height: 1.5; max-width: 200px; text-align: center;"><span class="nodeLabel markdown-node-label"><p>OpenChatPage</p></span></div></foreignObject></g></g><g class="node  statediagram-state" id="my-svg-state-FetchMatches-2" data-look="classic" transform="translate(221.2800841331482, 206)"><rect class="basic label-container" style="" rx="5" ry="5" x="-57.0546875" y="-20" width="114.109375" height="40"/><g class="label" style="" transform="translate(-49.0546875, -12)"><rect/><foreignObject width="98.109375" height="24"><div xmlns="http://www.w3.org/1999/xhtml" style="display: table-cell; white-space: nowrap; line-height: 1.5; max-width: 200px; text-align: center;"><span class="nodeLabel markdown-node-label"><p>FetchMatches</p></span></div></foreignObject></g></g><g class="node  statediagram-state" id="my-svg-state-DisplayMatchList-3" data-look="classic" transform="translate(221.2800841331482, 320)"><rect class="basic label-container" style="" rx="5" ry="5" x="-67.515625" y="-20" width="135.03125" height="40"/><g class="label" style="" transform="translate(-59.515625, -12)"><rect/><foreignObject width="119.03125" height="24"><div xmlns="http://www.w3.org/1999/xhtml" style="display: table-cell; white-space: nowrap; line-height: 1.5; max-width: 200px; text-align: center;"><span class="nodeLabel markdown-node-label"><p>DisplayMatchList</p></span></div></foreignObject></g></g><g class="node  statediagram-state" id="my-svg-state-SelectMatch-4" data-look="classic" transform="translate(221.2800841331482, 434)"><rect class="basic label-container" style="" rx="5" ry="5" x="-51.453125" y="-20" width="102.90625" height="40"/><g class="label" style="" transform="translate(-43.453125, -12)"><rect/><foreignObject width="86.90625" height="24"><div xmlns="http://www.w3.org/1999/xhtml" style="display: table-cell; white-space: nowrap; line-height: 1.5; max-width: 200px; text-align: center;"><span class="nodeLabel markdown-node-label"><p>SelectMatch</p></span></div></foreignObject></g></g><g class="root" transform="translate(103.1785216331482, 520)"><g class="clusters"><g class="statediagram-state statediagram-cluster" id="my-svg-state-LoadConversation-9" data-id="LoadConversation" data-look="classic"><g><rect class="outer" x="8" y="8" width="220.203125" height="621" data-look="classic"/></g><g class="cluster-label" transform="translate(54.6953125, 9)"><foreignObject width="126.8125" height="24"><div xmlns="http://www.w3.org/1999/xhtml" style="display: table-cell; white-space: nowrap; line-height: 1.5;"><span class="nodeLabel"><p>LoadConversation</p></span></div></foreignObject></g><rect class="inner" x="8" y="34" width="220.203125" height="591"/></g></g><g class="edgePaths"><path d="M118.102,59.5L118.102,65.75C118.102,72,118.102,84.5,118.102,97C118.102,109.5,118.102,122,118.102,128.25L118.102,134.5" id="my-svg-edge5" class="edge-thickness-normal edge-pattern-solid transition" style="fill:none;;;fill:none" data-edge="true" data-et="edge" data-id="edge5" data-points="W3sieCI6MTE4LjEwMTU2MjUsInkiOjU5LjV9LHsieCI6MTE4LjEwMTU2MjUsInkiOjk3fSx7IngiOjExOC4xMDE1NjI1LCJ5IjoxMzQuNX1d" data-look="classic" marker-end="url(#my-svg_stateDiagram-barbEnd)"/><path d="M118.102,174.5L118.102,182.75C118.102,191,118.102,207.5,118.102,224C118.102,240.5,118.102,257,118.102,265.25L118.102,273.5" id="my-svg-edge6" class="edge-thickness-normal edge-pattern-solid transition" style="fill:none;;;fill:none" data-edge="true" data-et="edge" data-id="edge6" data-points="W3sieCI6MTE4LjEwMTU2MjUsInkiOjE3NC41fSx7IngiOjExOC4xMDE1NjI1LCJ5IjoyMjR9LHsieCI6MTE4LjEwMTU2MjUsInkiOjI3My41fV0=" data-look="classic" marker-end="url(#my-svg_stateDiagram-barbEnd)"/><path d="M118.102,313.5L118.102,321.75C118.102,330,118.102,346.5,118.102,363C118.102,379.5,118.102,396,118.102,404.25L118.102,412.5" id="my-svg-edge7" class="edge-thickness-normal edge-pattern-solid transition" style="fill:none;;;fill:none" data-edge="true" data-et="edge" data-id="edge7" data-points="W3sieCI6MTE4LjEwMTU2MjUsInkiOjMxMy41fSx7IngiOjExOC4xMDE1NjI1LCJ5IjozNjN9LHsieCI6MTE4LjEwMTU2MjUsInkiOjQxMi41fV0=" data-look="classic" marker-end="url(#my-svg_stateDiagram-barbEnd)"/><path d="M118.102,452.5L118.102,460.75C118.102,469,118.102,485.5,118.102,502C118.102,518.5,118.102,535,118.102,543.25L118.102,551.5" id="my-svg-edge8" class="edge-thickness-normal edge-pattern-solid transition" style="fill:none;;;fill:none" data-edge="true" data-et="edge" data-id="edge8" data-points="W3sieCI6MTE4LjEwMTU2MjUsInkiOjQ1Mi41fSx7IngiOjExOC4xMDE1NjI1LCJ5Ijo1MDJ9LHsieCI6MTE4LjEwMTU2MjUsInkiOjU1MS41fV0=" data-look="classic" marker-end="url(#my-svg_stateDiagram-barbEnd)"/></g><g class="edgeLabels"><g class="edgeLabel"><g class="label" data-id="edge5" transform="translate(0, 0)"><foreignObject width="0" height="0"><div xmlns="http://www.w3.org/1999/xhtml" class="labelBkg" style="display: table-cell; white-space: nowrap; line-height: 1.5; max-width: 200px; text-align: center;"><span class="edgeLabel"></span></div></foreignObject></g></g><g class="edgeLabel" transform="translate(118.1015625, 224)"><g class="label" data-id="edge6" transform="translate(-62.3984375, -12)"><foreignObject width="124.796875" height="24"><div xmlns="http://www.w3.org/1999/xhtml" class="labelBkg" style="display: table-cell; white-space: nowrap; line-height: 1.5; max-width: 200px; text-align: center;"><span class="edgeLabel"><p>Participant check</p></span></div></foreignObject></g></g><g class="edgeLabel" transform="translate(118.1015625, 363)"><g class="label" data-id="edge7" transform="translate(-76.296875, -12)"><foreignObject width="152.59375" height="24"><div xmlns="http://www.w3.org/1999/xhtml" class="labelBkg" style="display: table-cell; white-space: nowrap; line-height: 1.5; max-width: 200px; text-align: center;"><span class="edgeLabel"><p>Load message history</p></span></div></foreignObject></g></g><g class="edgeLabel" transform="translate(118.1015625, 502)"><g class="label" data-id="edge8" transform="translate(-82.703125, -12)"><foreignObject width="165.40625" height="24"><div xmlns="http://www.w3.org/1999/xhtml" class="labelBkg" style="display: table-cell; white-space: nowrap; line-height: 1.5; max-width: 200px; text-align: center;"><span class="edgeLabel"><p>Load other user details</p></span></div></foreignObject></g></g></g><g class="nodes"><g class="node default" id="my-svg-state-LoadConversation_start-5" data-look="classic" transform="translate(118.1015625, 52.5)"><circle class="state-start" r="7" width="14" height="14"/></g><g class="node  statediagram-state" id="my-svg-state-ValidateAccess-6" data-look="classic" transform="translate(118.1015625, 154.5)"><rect class="basic label-container" style="" rx="5" ry="5" x="-60.59375" y="-20" width="121.1875" height="40"/><g class="label" style="" transform="translate(-52.59375, -12)"><rect/><foreignObject width="105.1875" height="24"><div xmlns="http://www.w3.org/1999/xhtml" style="display: table-cell; white-space: nowrap; line-height: 1.5; max-width: 200px; text-align: center;"><span class="nodeLabel markdown-node-label"><p>ValidateAccess</p></span></div></foreignObject></g></g><g class="node  statediagram-state" id="my-svg-state-GetOrCreateConvo-7" data-look="classic" transform="translate(118.1015625, 293.5)"><rect class="basic label-container" style="" rx="5" ry="5" x="-75.1015625" y="-20" width="150.203125" height="40"/><g class="label" style="" transform="translate(-67.1015625, -12)"><rect/><foreignObject width="134.203125" height="24"><div xmlns="http://www.w3.org/1999/xhtml" style="display: table-cell; white-space: nowrap; line-height: 1.5; max-width: 200px; text-align: center;"><span class="nodeLabel markdown-node-label"><p>GetOrCreateConvo</p></span></div></foreignObject></g></g><g class="node  statediagram-state" id="my-svg-state-FetchMessages-8" data-look="classic" transform="translate(118.1015625, 432.5)"><rect class="basic label-container" style="" rx="5" ry="5" x="-60.40625" y="-20" width="120.8125" height="40"/><g class="label" style="" transform="translate(-52.40625, -12)"><rect/><foreignObject width="104.8125" height="24"><div xmlns="http://www.w3.org/1999/xhtml" style="display: table-cell; white-space: nowrap; line-height: 1.5; max-width: 200px; text-align: center;"><span class="nodeLabel markdown-node-label"><p>FetchMessages</p></span></div></foreignObject></g></g><g class="node  statediagram-state" id="my-svg-state-FetchProfile-8" data-look="classic" transform="translate(118.1015625, 571.5)"><rect class="basic label-container" style="" rx="5" ry="5" x="-51.515625" y="-20" width="103.03125" height="40"/><g class="label" style="" transform="translate(-43.515625, -12)"><rect/><foreignObject width="87.03125" height="24"><div xmlns="http://www.w3.org/1999/xhtml" style="display: table-cell; white-space: nowrap; line-height: 1.5; max-width: 200px; text-align: center;"><span class="nodeLabel markdown-node-label"><p>FetchProfile</p></span></div></foreignObject></g></g></g></g><g class="node  statediagram-state" id="my-svg-state-DisplayChat-19" data-look="classic" transform="translate(221.2800841331482, 1243)"><rect class="basic label-container" style="" rx="5" ry="5" x="-49.921875" y="-20" width="99.84375" height="40"/><g class="label" style="" transform="translate(-41.921875, -12)"><rect/><foreignObject width="83.84375" height="24"><div xmlns="http://www.w3.org/1999/xhtml" style="display: table-cell; white-space: nowrap; line-height: 1.5; max-width: 200px; text-align: center;"><span class="nodeLabel markdown-node-label"><p>DisplayChat</p></span></div></foreignObject></g></g><g class="node  statediagram-state" id="my-svg-state-JoinSocketRoom-10" data-look="classic" transform="translate(73.9921875, 1786.5)"><rect class="basic label-container" style="" rx="5" ry="5" x="-65.9921875" y="-20" width="131.984375" height="40"/><g class="label" style="" transform="translate(-57.9921875, -12)"><rect/><foreignObject width="115.984375" height="24"><div xmlns="http://www.w3.org/1999/xhtml" style="display: table-cell; white-space: nowrap; line-height: 1.5; max-width: 200px; text-align: center;"><span class="nodeLabel markdown-node-label"><p>JoinSocketRoom</p></span></div></foreignObject></g></g><g class="root" transform="translate(245.9976682662964, 1329)"><g class="clusters"><g class="statediagram-state statediagram-cluster" id="my-svg-state-SendMessageFlow-18" data-id="SendMessageFlow" data-look="classic"><g><rect class="outer" x="8" y="8" width="231.109375" height="899" data-look="classic"/></g><g class="cluster-label" transform="translate(60.609375, 9)"><foreignObject width="125.890625" height="24"><div xmlns="http://www.w3.org/1999/xhtml" style="display: table-cell; white-space: nowrap; line-height: 1.5;"><span class="nodeLabel"><p>SendMessageFlow</p></span></div></foreignObject></g><rect class="inner" x="8" y="34" width="231.109375" height="869"/></g></g><g class="edgePaths"><path d="M123.555,59.5L123.555,65.75C123.555,72,123.555,84.5,123.555,97C123.555,109.5,123.555,122,123.555,128.25L123.555,134.5" id="my-svg-edge11" class="edge-thickness-normal edge-pattern-solid transition" style="fill:none;;;fill:none" data-edge="true" data-et="edge" data-id="edge11" data-points="W3sieCI6MTIzLjU1NDY4NzUsInkiOjU5LjV9LHsieCI6MTIzLjU1NDY4NzUsInkiOjk3fSx7IngiOjEyMy41NTQ2ODc1LCJ5IjoxMzQuNX1d" data-look="classic" marker-end="url(#my-svg_stateDiagram-barbEnd)"/><path d="M123.555,174.5L123.555,182.75C123.555,191,123.555,207.5,123.555,224C123.555,240.5,123.555,257,123.555,265.25L123.555,273.5" id="my-svg-edge12" class="edge-thickness-normal edge-pattern-solid transition" style="fill:none;;;fill:none" data-edge="true" data-et="edge" data-id="edge12" data-points="W3sieCI6MTIzLjU1NDY4NzUsInkiOjE3NC41fSx7IngiOjEyMy41NTQ2ODc1LCJ5IjoyMjR9LHsieCI6MTIzLjU1NDY4NzUsInkiOjI3My41fV0=" data-look="classic" marker-end="url(#my-svg_stateDiagram-barbEnd)"/><path d="M123.555,313.5L123.555,321.75C123.555,330,123.555,346.5,123.555,363C123.555,379.5,123.555,396,123.555,404.25L123.555,412.5" id="my-svg-edge13" class="edge-thickness-normal edge-pattern-solid transition" style="fill:none;;;fill:none" data-edge="true" data-et="edge" data-id="edge13" data-points="W3sieCI6MTIzLjU1NDY4NzUsInkiOjMxMy41fSx7IngiOjEyMy41NTQ2ODc1LCJ5IjozNjN9LHsieCI6MTIzLjU1NDY4NzUsInkiOjQxMi41fV0=" data-look="classic" marker-end="url(#my-svg_stateDiagram-barbEnd)"/><path d="M123.555,452.5L123.555,460.75C123.555,469,123.555,485.5,123.555,502C123.555,518.5,123.555,535,123.555,543.25L123.555,551.5" id="my-svg-edge14" class="edge-thickness-normal edge-pattern-solid transition" style="fill:none;;;fill:none" data-edge="true" data-et="edge" data-id="edge14" data-points="W3sieCI6MTIzLjU1NDY4NzUsInkiOjQ1Mi41fSx7IngiOjEyMy41NTQ2ODc1LCJ5Ijo1MDJ9LHsieCI6MTIzLjU1NDY4NzUsInkiOjU1MS41fV0=" data-look="classic" marker-end="url(#my-svg_stateDiagram-barbEnd)"/><path d="M123.555,591.5L123.555,599.75C123.555,608,123.555,624.5,123.555,641C123.555,657.5,123.555,674,123.555,682.25L123.555,690.5" id="my-svg-edge15" class="edge-thickness-normal edge-pattern-solid transition" style="fill:none;;;fill:none" data-edge="true" data-et="edge" data-id="edge15" data-points="W3sieCI6MTIzLjU1NDY4NzUsInkiOjU5MS41fSx7IngiOjEyMy41NTQ2ODc1LCJ5Ijo2NDF9LHsieCI6MTIzLjU1NDY4NzUsInkiOjY5MC41fV0=" data-look="classic" marker-end="url(#my-svg_stateDiagram-barbEnd)"/><path d="M123.555,730.5L123.555,738.75C123.555,747,123.555,763.5,123.555,780C123.555,796.5,123.555,813,123.555,821.25L123.555,829.5" id="my-svg-edge16" class="edge-thickness-normal edge-pattern-solid transition" style="fill:none;;;fill:none" data-edge="true" data-et="edge" data-id="edge16" data-points="W3sieCI6MTIzLjU1NDY4NzUsInkiOjczMC41fSx7IngiOjEyMy41NTQ2ODc1LCJ5Ijo3ODB9LHsieCI6MTIzLjU1NDY4NzUsInkiOjgyOS41fV0=" data-look="classic" marker-end="url(#my-svg_stateDiagram-barbEnd)"/></g><g class="edgeLabels"><g class="edgeLabel"><g class="label" data-id="edge11" transform="translate(0, 0)"><foreignObject width="0" height="0"><div xmlns="http://www.w3.org/1999/xhtml" class="labelBkg" style="display: table-cell; white-space: nowrap; line-height: 1.5; max-width: 200px; text-align: center;"><span class="edgeLabel"></span></div></foreignObject></g></g><g class="edgeLabel" transform="translate(123.5546875, 224)"><g class="label" data-id="edge12" transform="translate(-37.484375, -12)"><foreignObject width="74.96875" height="24"><div xmlns="http://www.w3.org/1999/xhtml" class="labelBkg" style="display: table-cell; white-space: nowrap; line-height: 1.5; max-width: 200px; text-align: center;"><span class="edgeLabel"><p>Press Send</p></span></div></foreignObject></g></g><g class="edgeLabel" transform="translate(123.5546875, 363)"><g class="label" data-id="edge13" transform="translate(-46.3046875, -12)"><foreignObject width="92.609375" height="24"><div xmlns="http://www.w3.org/1999/xhtml" class="labelBkg" style="display: table-cell; white-space: nowrap; line-height: 1.5; max-width: 200px; text-align: center;"><span class="edgeLabel"><p>Local update</p></span></div></foreignObject></g></g><g class="edgeLabel" transform="translate(123.5546875, 502)"><g class="label" data-id="edge14" transform="translate(-95.5546875, -12)"><foreignObject width="191.109375" height="24"><div xmlns="http://www.w3.org/1999/xhtml" class="labelBkg" style="display: table-cell; white-space: nowrap; line-height: 1.5; max-width: 200px; text-align: center;"><span class="edgeLabel"><p>socket.emit send_message</p></span></div></foreignObject></g></g><g class="edgeLabel" transform="translate(123.5546875, 641)"><g class="label" data-id="edge15" transform="translate(-38.0546875, -12)"><foreignObject width="76.109375" height="24"><div xmlns="http://www.w3.org/1999/xhtml" class="labelBkg" style="display: table-cell; white-space: nowrap; line-height: 1.5; max-width: 200px; text-align: center;"><span class="edgeLabel"><p>Save to DB</p></span></div></foreignObject></g></g><g class="edgeLabel" transform="translate(123.5546875, 780)"><g class="label" data-id="edge16" transform="translate(-68.484375, -12)"><foreignObject width="136.96875" height="24"><div xmlns="http://www.w3.org/1999/xhtml" class="labelBkg" style="display: table-cell; white-space: nowrap; line-height: 1.5; max-width: 200px; text-align: center;"><span class="edgeLabel"><p>Other user notified</p></span></div></foreignObject></g></g></g><g class="nodes"><g class="node default" id="my-svg-state-SendMessageFlow_start-11" data-look="classic" transform="translate(123.5546875, 52.5)"><circle class="state-start" r="7" width="14" height="14"/></g><g class="node  statediagram-state" id="my-svg-state-TypeMessage-12" data-look="classic" transform="translate(123.5546875, 154.5)"><rect class="basic label-container" style="" rx="5" ry="5" x="-53.5859375" y="-20" width="107.171875" height="40"/><g class="label" style="" transform="translate(-45.5859375, -12)"><rect/><foreignObject width="91.171875" height="24"><div xmlns="http://www.w3.org/1999/xhtml" style="display: table-cell; white-space: nowrap; line-height: 1.5; max-width: 200px; text-align: center;"><span class="nodeLabel markdown-node-label"><p>TypeMessage</p></span></div></foreignObject></g></g><g class="node  statediagram-state" id="my-svg-state-OptimisticAppend-13" data-look="classic" transform="translate(123.5546875, 293.5)"><rect class="basic label-container" style="" rx="5" ry="5" x="-71.703125" y="-20" width="143.40625" height="40"/><g class="label" style="" transform="translate(-63.703125, -12)"><rect/><foreignObject width="127.40625" height="24"><div xmlns="http://www.w3.org/1999/xhtml" style="display: table-cell; white-space: nowrap; line-height: 1.5; max-width: 200px; text-align: center;"><span class="nodeLabel markdown-node-label"><p>OptimisticAppend</p></span></div></foreignObject></g></g><g class="node  statediagram-state" id="my-svg-state-EmitSocketMessage-14" data-look="classic" transform="translate(123.5546875, 432.5)"><rect class="basic label-container" style="" rx="5" ry="5" x="-77.1484375" y="-20" width="154.296875" height="40"/><g class="label" style="" transform="translate(-69.1484375, -12)"><rect/><foreignObject width="138.296875" height="24"><div xmlns="http://www.w3.org/1999/xhtml" style="display: table-cell; white-space: nowrap; line-height: 1.5; max-width: 200px; text-align: center;"><span class="nodeLabel markdown-node-label"><p>EmitSocketMessage</p></span></div></foreignObject></g></g><g class="node  statediagram-state" id="my-svg-state-ServerPersist-15" data-look="classic" transform="translate(123.5546875, 571.5)"><rect class="basic label-container" style="" rx="5" ry="5" x="-54.203125" y="-20" width="108.40625" height="40"/><g class="label" style="" transform="translate(-46.203125, -12)"><rect/><foreignObject width="92.40625" height="24"><div xmlns="http://www.w3.org/1999/xhtml" style="display: table-cell; white-space: nowrap; line-height: 1.5; max-width: 200px; text-align: center;"><span class="nodeLabel markdown-node-label"><p>ServerPersist</p></span></div></foreignObject></g></g><g class="node  statediagram-state" id="my-svg-state-BroadcastMessage-16" data-look="classic" transform="translate(123.5546875, 710.5)"><rect class="basic label-container" style="" rx="5" ry="5" x="-72.265625" y="-20" width="144.53125" height="40"/><g class="label" style="" transform="translate(-64.265625, -12)"><rect/><foreignObject width="128.53125" height="24"><div xmlns="http://www.w3.org/1999/xhtml" style="display: table-cell; white-space: nowrap; line-height: 1.5; max-width: 200px; text-align: center;"><span class="nodeLabel markdown-node-label"><p>BroadcastMessage</p></span></div></foreignObject></g></g><g class="node  statediagram-state" id="my-svg-state-Receipt-16" data-look="classic" transform="translate(123.5546875, 849.5)"><rect class="basic label-container" style="" rx="5" ry="5" x="-34.9296875" y="-20" width="69.859375" height="40"/><g class="label" style="" transform="translate(-26.9296875, -12)"><rect/><foreignObject width="53.859375" height="24"><div xmlns="http://www.w3.org/1999/xhtml" style="display: table-cell; white-space: nowrap; line-height: 1.5; max-width: 200px; text-align: center;"><span class="nodeLabel markdown-node-label"><p>Receipt</p></span></div></foreignObject></g></g></g></g><g class="node default" id="my-svg-state-root_end-19" data-look="classic" transform="translate(196.9910216331482, 1786.5)"><g class="outer-path"><path d="M7 0 C7 0.40517908122283747, 6.964012880168563 0.816513743121899, 6.893654271085456 1.2155372436685123 C6.823295662002349 1.6145607442151257, 6.716427752933756 2.013397210557766, 6.5778483455013586 2.394141003279681 C6.439268938068961 2.7748847960015954, 6.26476736710249 3.149104622578984, 6.062177826491071 3.4999999999999996 C5.859588285879653 3.8508953774210153, 5.622755194947063 4.189128084166967, 5.362311101832846 4.499513267805774 C5.10186700871863 4.809898451444582, 4.809898451444583 5.10186700871863, 4.499513267805775 5.362311101832846 C4.189128084166968 5.622755194947063, 3.8508953774210166 5.859588285879652, 3.500000000000001 6.06217782649107 C3.149104622578985 6.264767367102489, 2.7748847960015963 6.439268938068961, 2.3941410032796817 6.5778483455013586 C2.013397210557767 6.716427752933756, 1.6145607442151264 6.823295662002349, 1.2155372436685128 6.893654271085456 C0.8165137431218992 6.964012880168563, 0.4051790812228379 7, 4.286263797015736e-16 7 C-0.405179081222837 7, -0.8165137431218985 6.964012880168563, -1.2155372436685121 6.893654271085456 C-1.6145607442151257 6.823295662002349, -2.0133972105577667 6.716427752933756, -2.394141003279681 6.5778483455013586 C-2.774884796001595 6.439268938068961, -3.149104622578983 6.26476736710249, -3.4999999999999982 6.062177826491071 C-3.8508953774210135 5.859588285879653, -4.189128084166966 5.6227551949470636, -4.499513267805773 5.362311101832848 C-4.809898451444581 5.101867008718632, -5.101867008718628 4.809898451444586, -5.3623111018328435 4.499513267805779 C-5.622755194947059 4.189128084166971, -5.859588285879649 3.8508953774210206, -6.062177826491068 3.5000000000000053 C-6.264767367102486 3.14910462257899, -6.439268938068958 2.774884796001602, -6.577848345501356 2.394141003279688 C-6.716427752933754 2.0133972105577738, -6.823295662002347 1.614560744215134, -6.893654271085454 1.215537243668521 C-6.9640128801685615 0.816513743121908, -6.999999999999999 0.4051790812228472, -7 1.0183126166254463e-14 C-7.000000000000001 -0.40517908122282686, -6.964012880168565 -0.8165137431218878, -6.893654271085459 -1.215537243668501 C-6.823295662002352 -1.6145607442151142, -6.716427752933759 -2.0133972105577542, -6.577848345501363 -2.394141003279669 C-6.439268938068967 -2.7748847960015834, -6.264767367102496 -3.149104622578972, -6.062177826491078 -3.4999999999999876 C-5.859588285879661 -3.8508953774210033, -5.6227551949470715 -4.1891280841669545, -5.362311101832856 -4.499513267805763 C-5.10186700871864 -4.809898451444571, -4.809898451444594 -5.10186700871862, -4.499513267805787 -5.362311101832836 C-4.189128084166979 -5.622755194947053, -3.850895377421028 -5.859588285879643, -3.5000000000000133 -6.062177826491062 C-3.1491046225789985 -6.264767367102482, -2.774884796001611 -6.439268938068954, -2.3941410032796973 -6.577848345501353 C-2.0133972105577835 -6.716427752933752, -1.6145607442151435 -6.823295662002345, -1.2155372436685306 -6.893654271085453 C-0.8165137431219176 -6.9640128801685615, -0.40517908122285695 -6.999999999999999, -1.9937625952807352e-14 -7 C0.4051790812228171 -7.000000000000001, 0.8165137431218781 -6.964012880168565, 1.2155372436684913 -6.89365427108546 C1.6145607442151044 -6.823295662002354, 2.013397210557745 -6.716427752933763, 2.3941410032796595 -6.5778483455013665 C2.774884796001574 -6.43926893806897, 3.149104622578963 -6.2647673671025, 3.499999999999979 -6.062177826491083 C3.8508953774209953 -5.859588285879665, 4.189128084166947 -5.622755194947077, 4.499513267805756 -5.362311101832862 C4.809898451444564 -5.1018670087186475, 5.101867008718613 -4.809898451444602, 5.362311101832829 -4.499513267805796 C5.622755194947046 -4.189128084166989, 5.859588285879637 -3.8508953774210393, 6.062177826491056 -3.500000000000025 C6.2647673671024755 -3.1491046225790105, 6.439268938068949 -2.774884796001623, 6.577848345501348 -2.3941410032797092 C6.716427752933747 -2.0133972105577955, 6.823295662002342 -1.6145607442151562, 6.893654271085451 -1.2155372436685434 C6.96401288016856 -0.8165137431219307, 6.982275711847575 -0.2025895406114567, 7 -3.2800750208310675e-14 C7.017724288152425 0.2025895406113911, 7.017724288152424 -0.2025895406114242, 7 0" stroke="none" stroke-width="0" fill="#ECECFF" style=""/><path d="M7 0 C7 0.40517908122283747, 6.964012880168563 0.816513743121899, 6.893654271085456 1.2155372436685123 C6.823295662002349 1.6145607442151257, 6.716427752933756 2.013397210557766, 6.5778483455013586 2.394141003279681 C6.439268938068961 2.7748847960015954, 6.26476736710249 3.149104622578984, 6.062177826491071 3.4999999999999996 C5.859588285879653 3.8508953774210153, 5.622755194947063 4.189128084166967, 5.362311101832846 4.499513267805774 C5.10186700871863 4.809898451444582, 4.809898451444583 5.10186700871863, 4.499513267805775 5.362311101832846 C4.189128084166968 5.622755194947063, 3.8508953774210166 5.859588285879652, 3.500000000000001 6.06217782649107 C3.149104622578985 6.264767367102489, 2.7748847960015963 6.439268938068961, 2.3941410032796817 6.5778483455013586 C2.013397210557767 6.716427752933756, 1.6145607442151264 6.823295662002349, 1.2155372436685128 6.893654271085456 C0.8165137431218992 6.964012880168563, 0.4051790812228379 7, 4.286263797015736e-16 7 C-0.405179081222837 7, -0.8165137431218985 6.964012880168563, -1.2155372436685121 6.893654271085456 C-1.6145607442151257 6.823295662002349, -2.0133972105577667 6.716427752933756, -2.394141003279681 6.5778483455013586 C-2.774884796001595 6.439268938068961, -3.149104622578983 6.26476736710249, -3.4999999999999982 6.062177826491071 C-3.8508953774210135 5.859588285879653, -4.189128084166966 5.6227551949470636, -4.499513267805773 5.362311101832848 C-4.809898451444581 5.101867008718632, -5.101867008718628 4.809898451444586, -5.3623111018328435 4.499513267805779 C-5.622755194947059 4.189128084166971, -5.859588285879649 3.8508953774210206, -6.062177826491068 3.5000000000000053 C-6.264767367102486 3.14910462257899, -6.439268938068958 2.774884796001602, -6.577848345501356 2.394141003279688 C-6.716427752933754 2.0133972105577738, -6.823295662002347 1.614560744215134, -6.893654271085454 1.215537243668521 C-6.9640128801685615 0.816513743121908, -6.999999999999999 0.4051790812228472, -7 1.0183126166254463e-14 C-7.000000000000001 -0.40517908122282686, -6.964012880168565 -0.8165137431218878, -6.893654271085459 -1.215537243668501 C-6.823295662002352 -1.6145607442151142, -6.716427752933759 -2.0133972105577542, -6.577848345501363 -2.394141003279669 C-6.439268938068967 -2.7748847960015834, -6.264767367102496 -3.149104622578972, -6.062177826491078 -3.4999999999999876 C-5.859588285879661 -3.8508953774210033, -5.6227551949470715 -4.1891280841669545, -5.362311101832856 -4.499513267805763 C-5.10186700871864 -4.809898451444571, -4.809898451444594 -5.10186700871862, -4.499513267805787 -5.362311101832836 C-4.189128084166979 -5.622755194947053, -3.850895377421028 -5.859588285879643, -3.5000000000000133 -6.062177826491062 C-3.1491046225789985 -6.264767367102482, -2.774884796001611 -6.439268938068954, -2.3941410032796973 -6.577848345501353 C-2.0133972105577835 -6.716427752933752, -1.6145607442151435 -6.823295662002345, -1.2155372436685306 -6.893654271085453 C-0.8165137431219176 -6.9640128801685615, -0.40517908122285695 -6.999999999999999, -1.9937625952807352e-14 -7 C0.4051790812228171 -7.000000000000001, 0.8165137431218781 -6.964012880168565, 1.2155372436684913 -6.89365427108546 C1.6145607442151044 -6.823295662002354, 2.013397210557745 -6.716427752933763, 2.3941410032796595 -6.5778483455013665 C2.774884796001574 -6.43926893806897, 3.149104622578963 -6.2647673671025, 3.499999999999979 -6.062177826491083 C3.8508953774209953 -5.859588285879665, 4.189128084166947 -5.622755194947077, 4.499513267805756 -5.362311101832862 C4.809898451444564 -5.1018670087186475, 5.101867008718613 -4.809898451444602, 5.362311101832829 -4.499513267805796 C5.622755194947046 -4.189128084166989, 5.859588285879637 -3.8508953774210393, 6.062177826491056 -3.500000000000025 C6.2647673671024755 -3.1491046225790105, 6.439268938068949 -2.774884796001623, 6.577848345501348 -2.3941410032797092 C6.716427752933747 -2.0133972105577955, 6.823295662002342 -1.6145607442151562, 6.893654271085451 -1.2155372436685434 C6.96401288016856 -0.8165137431219307, 6.982275711847575 -0.2025895406114567, 7 -3.2800750208310675e-14 C7.017724288152425 0.2025895406113911, 7.017724288152424 -0.2025895406114242, 7 0" stroke="#333333" stroke-width="2" fill="none" stroke-dasharray="0 0" style=""/><g><path d="M2.5 0 C2.5 0.14470681472244193, 2.487147457203058 0.29161205111496386, 2.46201938253052 0.4341204441673258 C2.436891307857982 0.5766288372196877, 2.3987241974763416 0.7190704323420595, 2.3492315519647713 0.8550503583141718 C2.299738906453201 0.991030284286284, 2.2374169168223177 1.124680222349637, 2.165063509461097 1.2499999999999998 C2.092710102099876 1.3753197776503625, 2.0081268553382365 1.496117172916774, 1.915111107797445 1.6069690242163481 C1.8220953602566536 1.7178208755159223, 1.7178208755159226 1.8220953602566536, 1.6069690242163484 1.915111107797445 C1.4961171729167742 2.0081268553382365, 1.375319777650363 2.0927101020998755, 1.2500000000000002 2.1650635094610964 C1.1246802223496375 2.2374169168223172, 0.9910302842862845 2.2997389064532, 0.8550503583141721 2.349231551964771 C0.7190704323420597 2.3987241974763416, 0.576628837219688 2.436891307857982, 0.43412044416732604 2.46201938253052 C0.291612051114964 2.487147457203058, 0.14470681472244212 2.5, 1.5308084989341916e-16 2.5 C-0.1447068147224418 2.5, -0.2916120511149638 2.487147457203058, -0.43412044416732576 2.46201938253052 C-0.5766288372196877 2.436891307857982, -0.7190704323420595 2.3987241974763416, -0.8550503583141718 2.3492315519647713 C-0.991030284286284 2.299738906453201, -1.124680222349637 2.2374169168223177, -1.2499999999999996 2.165063509461097 C-1.375319777650362 2.092710102099876, -1.4961171729167733 2.008126855338237, -1.6069690242163475 1.9151111077974459 C-1.7178208755159217 1.8220953602566548, -1.822095360256653 1.7178208755159234, -1.9151111077974443 1.6069690242163495 C-2.0081268553382357 1.4961171729167755, -2.0927101020998746 1.3753197776503645, -2.1650635094610955 1.250000000000002 C-2.2374169168223164 1.1246802223496395, -2.2997389064531992 0.9910302842862865, -2.34923155196477 0.8550503583141743 C-2.3987241974763407 0.7190704323420621, -2.436891307857981 0.5766288372196907, -2.4620193825305194 0.434120444167329 C-2.487147457203058 0.29161205111496724, -2.5 0.14470681472244545, -2.5 3.636830773662308e-15 C-2.5 -0.14470681472243818, -2.4871474572030587 -0.2916120511149599, -2.4620193825305208 -0.4341204441673218 C-2.436891307857983 -0.5766288372196837, -2.398724197476343 -0.7190704323420553, -2.3492315519647726 -0.8550503583141675 C-2.2997389064532023 -0.9910302842862798, -2.23741691682232 -1.1246802223496328, -2.165063509461099 -1.2499999999999956 C-2.092710102099878 -1.3753197776503583, -2.00812685533824 -1.4961171729167695, -1.9151111077974488 -1.606969024216344 C-1.8220953602566576 -1.7178208755159183, -1.7178208755159263 -1.82209536025665, -1.6069690242163523 -1.9151111077974416 C-1.4961171729167784 -2.0081268553382334, -1.3753197776503672 -2.0927101020998724, -1.2500000000000047 -2.1650635094610937 C-1.1246802223496422 -2.237416916822315, -0.9910302842862897 -2.299738906453198, -0.8550503583141776 -2.3492315519647686 C-0.7190704323420656 -2.3987241974763394, -0.5766288372196942 -2.4368913078579806, -0.43412044416733236 -2.462019382530519 C-0.29161205111497057 -2.4871474572030574, -0.1447068147224489 -2.4999999999999996, -7.120580697431198e-15 -2.5 C0.14470681472243463 -2.5000000000000004, 0.29161205111495647 -2.487147457203059, 0.4341204441673183 -2.4620193825305217 C0.5766288372196802 -2.436891307857984, 0.7190704323420518 -2.3987241974763442, 0.8550503583141642 -2.349231551964774 C0.9910302842862766 -2.2997389064532037, 1.1246802223496295 -2.2374169168223212, 1.2499999999999925 -2.165063509461101 C1.3753197776503554 -2.0927101020998804, 1.4961171729167668 -2.008126855338242, 1.6069690242163412 -1.915111107797451 C1.7178208755159157 -1.82209536025666, 1.8220953602566472 -1.7178208755159294, 1.915111107797439 -1.6069690242163557 C2.0081268553382308 -1.496117172916782, 2.09271010209987 -1.3753197776503712, 2.1650635094610915 -1.2500000000000089 C2.237416916822313 -1.1246802223496466, 2.299738906453196 -0.9910302842862939, 2.3492315519647673 -0.855050358314182 C2.3987241974763385 -0.71907043234207, 2.4368913078579792 -0.5766288372196986, 2.462019382530518 -0.4341204441673369 C2.487147457203057 -0.29161205111497523, 2.4936698970884197 -0.07235340736123454, 2.5 -1.1714553645825241e-14 C2.5063301029115803 0.07235340736121111, 2.50633010291158 -0.07235340736122292, 2.5 0" stroke="none" stroke-width="0" fill="#9370DB" style=""/><path d="M2.5 0 C2.5 0.14470681472244193, 2.487147457203058 0.29161205111496386, 2.46201938253052 0.4341204441673258 C2.436891307857982 0.5766288372196877, 2.3987241974763416 0.7190704323420595, 2.3492315519647713 0.8550503583141718 C2.299738906453201 0.991030284286284, 2.2374169168223177 1.124680222349637, 2.165063509461097 1.2499999999999998 C2.092710102099876 1.3753197776503625, 2.0081268553382365 1.496117172916774, 1.915111107797445 1.6069690242163481 C1.8220953602566536 1.7178208755159223, 1.7178208755159226 1.8220953602566536, 1.6069690242163484 1.915111107797445 C1.4961171729167742 2.0081268553382365, 1.375319777650363 2.0927101020998755, 1.2500000000000002 2.1650635094610964 C1.1246802223496375 2.2374169168223172, 0.9910302842862845 2.2997389064532, 0.8550503583141721 2.349231551964771 C0.7190704323420597 2.3987241974763416, 0.576628837219688 2.436891307857982, 0.43412044416732604 2.46201938253052 C0.291612051114964 2.487147457203058, 0.14470681472244212 2.5, 1.5308084989341916e-16 2.5 C-0.1447068147224418 2.5, -0.2916120511149638 2.487147457203058, -0.43412044416732576 2.46201938253052 C-0.5766288372196877 2.436891307857982, -0.7190704323420595 2.3987241974763416, -0.8550503583141718 2.3492315519647713 C-0.991030284286284 2.299738906453201, -1.124680222349637 2.2374169168223177, -1.2499999999999996 2.165063509461097 C-1.375319777650362 2.092710102099876, -1.4961171729167733 2.008126855338237, -1.6069690242163475 1.9151111077974459 C-1.7178208755159217 1.8220953602566548, -1.822095360256653 1.7178208755159234, -1.9151111077974443 1.6069690242163495 C-2.0081268553382357 1.4961171729167755, -2.0927101020998746 1.3753197776503645, -2.1650635094610955 1.250000000000002 C-2.2374169168223164 1.1246802223496395, -2.2997389064531992 0.9910302842862865, -2.34923155196477 0.8550503583141743 C-2.3987241974763407 0.7190704323420621, -2.436891307857981 0.5766288372196907, -2.4620193825305194 0.434120444167329 C-2.487147457203058 0.29161205111496724, -2.5 0.14470681472244545, -2.5 3.636830773662308e-15 C-2.5 -0.14470681472243818, -2.4871474572030587 -0.2916120511149599, -2.4620193825305208 -0.4341204441673218 C-2.436891307857983 -0.5766288372196837, -2.398724197476343 -0.7190704323420553, -2.3492315519647726 -0.8550503583141675 C-2.2997389064532023 -0.9910302842862798, -2.23741691682232 -1.1246802223496328, -2.165063509461099 -1.2499999999999956 C-2.092710102099878 -1.3753197776503583, -2.00812685533824 -1.4961171729167695, -1.9151111077974488 -1.606969024216344 C-1.8220953602566576 -1.7178208755159183, -1.7178208755159263 -1.82209536025665, -1.6069690242163523 -1.9151111077974416 C-1.4961171729167784 -2.0081268553382334, -1.3753197776503672 -2.0927101020998724, -1.2500000000000047 -2.1650635094610937 C-1.1246802223496422 -2.237416916822315, -0.9910302842862897 -2.299738906453198, -0.8550503583141776 -2.3492315519647686 C-0.7190704323420656 -2.3987241974763394, -0.5766288372196942 -2.4368913078579806, -0.43412044416733236 -2.462019382530519 C-0.29161205111497057 -2.4871474572030574, -0.1447068147224489 -2.4999999999999996, -7.120580697431198e-15 -2.5 C0.14470681472243463 -2.5000000000000004, 0.29161205111495647 -2.487147457203059, 0.4341204441673183 -2.4620193825305217 C0.5766288372196802 -2.436891307857984, 0.7190704323420518 -2.3987241974763442, 0.8550503583141642 -2.349231551964774 C0.9910302842862766 -2.2997389064532037, 1.1246802223496295 -2.2374169168223212, 1.2499999999999925 -2.165063509461101 C1.3753197776503554 -2.0927101020998804, 1.4961171729167668 -2.008126855338242, 1.6069690242163412 -1.915111107797451 C1.7178208755159157 -1.82209536025666, 1.8220953602566472 -1.7178208755159294, 1.915111107797439 -1.6069690242163557 C2.0081268553382308 -1.496117172916782, 2.09271010209987 -1.3753197776503712, 2.1650635094610915 -1.2500000000000089 C2.237416916822313 -1.1246802223496466, 2.299738906453196 -0.9910302842862939, 2.3492315519647673 -0.855050358314182 C2.3987241974763385 -0.71907043234207, 2.4368913078579792 -0.5766288372196986, 2.462019382530518 -0.4341204441673369 C2.487147457203057 -0.29161205111497523, 2.4936698970884197 -0.07235340736123454, 2.5 -1.1714553645825241e-14 C2.5063301029115803 0.07235340736121111, 2.50633010291158 -0.07235340736122292, 2.5 0" stroke="#9370DB" stroke-width="2" fill="none" stroke-dasharray="0 0" style=""/></g></g></g></g></g></g><defs><filter id="my-svg-drop-shadow" height="130%" width="130%"><feDropShadow dx="4" dy="4" stdDeviation="0" flood-opacity="0.06" flood-color="#000000"/></filter></defs><defs><filter id="my-svg-drop-shadow-small" height="150%" width="150%"><feDropShadow dx="2" dy="2" stdDeviation="0" flood-opacity="0.06" flood-color="#000000"/></filter></defs></svg>