<svg width="768" height="768" viewBox="0 0 768 768" fill="none" xmlns="http://www.w3.org/2000/svg" role="img" aria-label="Flately logo">
  <defs>
    <linearGradient id="leftHouse" x1="210" y1="170" x2="540" y2="470" gradientUnits="userSpaceOnUse">
      <stop offset="0" stop-color="#9AE3C5"/>
      <stop offset="1" stop-color="#78CFB0"/>
    </linearGradient>
    <linearGradient id="rightHouse" x1="360" y1="170" x2="700" y2="470" gradientUnits="userSpaceOnUse">
      <stop offset="0" stop-color="#27B48A"/>
      <stop offset="1" stop-color="#159B73"/>
    </linearGradient>
    <linearGradient id="centerHouse" x1="520" y1="200" x2="520" y2="470" gradientUnits="userSpaceOnUse">
      <stop offset="0" stop-color="#176B78"/>
      <stop offset="1" stop-color="#0F4C5C"/>
    </linearGradient>
    <linearGradient id="wordmark" x1="120" y1="545" x2="665" y2="702" gradientUnits="userSpaceOnUse">
      <stop offset="0" stop-color="#253A4A"/>
      <stop offset="1" stop-color="#162533"/>
    </linearGradient>
  </defs>

  <path d="M210 300L340 170C356 154 372 154 388 170L518 300C536 318 546 338 546 367V404C546 438 519 466 485 466H271C237 466 210 438 210 404V367C210 338 220 318 238 300H210Z" fill="url(#leftHouse)"/>

  <path d="M380 300L510 170C526 154 542 154 558 170L688 300C706 318 716 338 716 367V404C716 438 689 466 655 466H441C407 466 380 438 380 404V367C380 338 390 318 408 300H380Z" fill="url(#rightHouse)"/>

  <path d="M382 336L512 204L644 336C656 348 664 365 664 384V406C664 439 637 466 604 466H442C409 466 382 439 382 406V384C382 365 390 348 402 336H382Z" fill="url(#centerHouse)"/>

  <text x="384" y="684" text-anchor="middle" fill="url(#wordmark)" font-family="Sora, Avenir Next, Segoe UI, sans-serif" font-size="160" font-weight="700" letter-spacing="1">flately</text>
</svg>
