<svg width="768" height="768" viewBox="0 0 768 768" fill="none" xmlns="http://www.w3.org/2000/svg" role="img" aria-label="Flately logo">
  <defs>
    <linearGradient id="leftHouse" x1="170" y1="150" x2="520" y2="470" gradientUnits="userSpaceOnUse">
      <stop offset="0" stop-color="#9BE5C7"/>
      <stop offset="1" stop-color="#7DD0B2"/>
    </linearGradient>
    <linearGradient id="rightHouse" x1="300" y1="150" x2="690" y2="470" gradientUnits="userSpaceOnUse">
      <stop offset="0" stop-color="#2AB58C"/>
      <stop offset="1" stop-color="#179D75"/>
    </linearGradient>
    <linearGradient id="centerHouse" x1="460" y1="178" x2="460" y2="470" gradientUnits="userSpaceOnUse">
      <stop offset="0" stop-color="#1B6F7C"/>
      <stop offset="1" stop-color="#0F4C5C"/>
    </linearGradient>
    <linearGradient id="wordmark" x1="120" y1="560" x2="650" y2="700" gradientUnits="userSpaceOnUse">
      <stop offset="0" stop-color="#253A4A"/>
      <stop offset="1" stop-color="#182838"/>
    </linearGradient>
  </defs>

  <rect width="768" height="768" fill="#ECECEC"/>

  <path d="M210 300L340 170C356 154 372 154 388 170L518 300C536 318 546 338 546 367V404C546 438 519 466 485 466H271C237 466 210 438 210 404V367C210 338 220 318 238 300H210Z" fill="url(#leftHouse)"/>

  <path d="M380 300L510 170C526 154 542 154 558 170L688 300C706 318 716 338 716 367V404C716 438 689 466 655 466H441C407 466 380 438 380 404V367C380 338 390 318 408 300H380Z" fill="url(#rightHouse)"/>

  <path d="M320 333L390 255C405 238 431 238 446 255L516 333C530 348 538 368 538 388V406C538 439 511 466 478 466H378C345 466 318 439 318 406V388C318 368 326 348 340 333H320Z" fill="url(#centerHouse)"/>

  <text x="384" y="690" text-anchor="middle" fill="url(#wordmark)" font-family="Sora, Avenir Next, Segoe UI, sans-serif" font-size="176" font-weight="700" letter-spacing="1">flately</text>
</svg>
