<svg width="768" height="768" viewBox="0 0 768 768" fill="none" xmlns="http://www.w3.org/2000/svg" role="img" aria-label="Flately logo">
  <defs>
    <linearGradient id="leftHouse" x1="170" y1="150" x2="520" y2="470" gradientUnits="userSpaceOnUse">
      <stop offset="0" stop-color="#9BE5C7"/>
      <stop offset="1" stop-color="#7DD0B2"/>
    </linearGradient>
    <linearGradient id="rightHouse" x1="300" y1="150" x2="690" y2="470" gradientUnits="userSpaceOnUse">
      <stop offset="0" stop-color="#2AB58C"/>
      <stop offset="1" stop-color="#179D75"/>
    </linearGradient>
    <linearGradient id="centerHouse" x1="460" y1="178" x2="460" y2="470" gradientUnits="userSpaceOnUse">
      <stop offset="0" stop-color="#1B6F7C"/>
      <stop offset="1" stop-color="#0F4C5C"/>
    </linearGradient>
    <linearGradient id="wordmark" x1="120" y1="560" x2="650" y2="700" gradientUnits="userSpaceOnUse">
      <stop offset="0" stop-color="#253A4A"/>
      <stop offset="1" stop-color="#182838"/>
    </linearGradient>
  </defs>

  <rect width="768" height="768" fill="#ECECEC"/>

  <path d="M210 278L318 170C326 162 334 162 342 170L450 278V386C450 409 431 428 408 428H252C229 428 210 409 210 386V278Z" fill="#8EDFC3"/>

  <path d="M326 278L434 170C442 162 450 162 458 170L566 278V386C566 409 547 428 524 428H368C345 428 326 409 326 386V278Z" fill="#1FAE84"/>

  <path d="M322 286L378 230C382 226 386 226 390 230L446 286V390C446 411 429 428 408 428H360C339 428 322 411 322 390V286Z" fill="#0F5D72"/>

  <text x="384" y="690" text-anchor="middle" fill="#1F3446" font-family="Avenir Next, Segoe UI, Helvetica, Arial, sans-serif" font-size="168" font-weight="700" letter-spacing="0.5">flately</text>
</svg>
